<svg xmlns="http://www.w3.org/2000/svg" xmlns:xlink="http://www.w3.org/1999/xlink" width="500" zoomAndPan="magnify" viewBox="0 0 375 374.999991" height="500" preserveAspectRatio="xMidYMid meet" version="1.0"><path fill="#ffffff" d="M 187.5 0 C 190.570312 0 193.636719 0.0742188 196.699219 0.226562 C 199.765625 0.375 202.824219 0.601562 205.878906 0.902344 C 208.933594 1.203125 211.976562 1.578125 215.011719 2.03125 C 218.046875 2.480469 221.070312 3.003906 224.078125 3.601562 C 227.089844 4.203125 230.082031 4.875 233.058594 5.617188 C 236.035156 6.363281 238.992188 7.183594 241.929688 8.074219 C 244.863281 8.964844 247.777344 9.925781 250.667969 10.960938 C 253.554688 11.996094 256.417969 13.097656 259.253906 14.273438 C 262.089844 15.445312 264.890625 16.691406 267.667969 18.003906 C 270.441406 19.3125 273.179688 20.691406 275.886719 22.140625 C 278.59375 23.585938 281.261719 25.097656 283.894531 26.675781 C 286.527344 28.253906 289.117188 29.894531 291.667969 31.597656 C 294.222656 33.304688 296.730469 35.070312 299.195312 36.898438 C 301.660156 38.726562 304.078125 40.613281 306.449219 42.558594 C 308.820312 44.507812 311.144531 46.511719 313.417969 48.570312 C 315.691406 50.632812 317.914062 52.746094 320.082031 54.917969 C 322.253906 57.085938 324.367188 59.308594 326.429688 61.582031 C 328.488281 63.855469 330.492188 66.179688 332.4375 68.550781 C 334.386719 70.921875 336.273438 73.339844 338.101562 75.804688 C 339.929688 78.269531 341.695312 80.777344 343.402344 83.332031 C 345.105469 85.882812 346.746094 88.472656 348.324219 91.105469 C 349.902344 93.738281 351.414062 96.40625 352.859375 99.113281 C 354.308594 101.820312 355.6875 104.558594 356.996094 107.332031 C 358.308594 110.105469 359.554688 112.910156 360.726562 115.746094 C 361.902344 118.582031 363.003906 121.445312 364.039062 124.332031 C 365.074219 127.222656 366.035156 130.136719 366.925781 133.070312 C 367.816406 136.007812 368.636719 138.964844 369.378906 141.941406 C 370.125 144.917969 370.796875 147.910156 371.398438 150.921875 C 371.996094 153.929688 372.519531 156.953125 372.96875 159.988281 C 373.421875 163.023438 373.796875 166.066406 374.097656 169.121094 C 374.398438 172.175781 374.625 175.234375 374.773438 178.300781 C 374.925781 181.363281 375 184.429688 375 187.5 C 375 190.570312 374.925781 193.636719 374.773438 196.699219 C 374.625 199.765625 374.398438 202.824219 374.097656 205.878906 C 373.796875 208.933594 373.421875 211.976562 372.96875 215.011719 C 372.519531 218.046875 371.996094 221.070312 371.398438 224.078125 C 370.796875 227.089844 370.125 230.082031 369.378906 233.058594 C 368.636719 236.035156 367.816406 238.992188 366.925781 241.929688 C 366.035156 244.863281 365.074219 247.777344 364.039062 250.667969 C 363.003906 253.554688 361.902344 256.417969 360.726562 259.253906 C 359.554688 262.089844 358.308594 264.890625 356.996094 267.667969 C 355.6875 270.441406 354.308594 273.179688 352.859375 275.886719 C 351.414062 278.59375 349.902344 281.261719 348.324219 283.894531 C 346.746094 286.527344 345.105469 289.117188 343.402344 291.667969 C 341.695312 294.222656 339.929688 296.730469 338.101562 299.195312 C 336.273438 301.660156 334.386719 304.078125 332.4375 306.449219 C 330.492188 308.820312 328.488281 311.144531 326.429688 313.417969 C 324.367188 315.691406 322.253906 317.914062 320.082031 320.082031 C 317.914062 322.253906 315.691406 324.367188 313.417969 326.429688 C 311.144531 328.488281 308.820312 330.492188 306.449219 332.4375 C 304.078125 334.386719 301.660156 336.273438 299.195312 338.101562 C 296.730469 339.929688 294.222656 341.695312 291.667969 343.402344 C 289.117188 345.105469 286.527344 346.746094 283.894531 348.324219 C 281.261719 349.902344 278.59375 351.414062 275.886719 352.859375 C 273.179688 354.308594 270.441406 355.6875 267.667969 356.996094 C 264.890625 358.308594 262.089844 359.554688 259.253906 360.726562 C 256.417969 361.902344 253.554688 363.003906 250.667969 364.039062 C 247.777344 365.074219 244.863281 366.035156 241.929688 366.925781 C 238.992188 367.816406 236.035156 368.636719 233.058594 369.378906 C 230.082031 370.125 227.089844 370.796875 224.078125 371.398438 C 221.070312 371.996094 218.046875 372.519531 215.011719 372.96875 C 211.976562 373.421875 208.933594 373.796875 205.878906 374.097656 C 202.824219 374.398438 199.765625 374.625 196.699219 374.773438 C 193.636719 374.925781 190.570312 375 187.5 375 C 184.429688 375 181.363281 374.925781 178.300781 374.773438 C 175.234375 374.625 172.175781 374.398438 169.121094 374.097656 C 166.066406 373.796875 163.023438 373.421875 159.988281 372.96875 C 156.953125 372.519531 153.929688 371.996094 150.921875 371.398438 C 147.910156 370.796875 144.917969 370.125 141.941406 369.378906 C 138.964844 368.636719 136.007812 367.816406 133.070312 366.925781 C 130.136719 366.035156 127.222656 365.074219 124.332031 364.039062 C 121.445312 363.003906 118.582031 361.902344 115.746094 360.726562 C 112.910156 359.554688 110.105469 358.308594 107.332031 356.996094 C 104.558594 355.6875 101.820312 354.308594 99.113281 352.859375 C 96.40625 351.414062 93.738281 349.902344 91.105469 348.324219 C 88.472656 346.746094 85.882812 345.105469 83.332031 343.402344 C 80.777344 341.695312 78.269531 339.929688 75.804688 338.101562 C 73.339844 336.273438 70.921875 334.386719 68.550781 332.4375 C 66.179688 330.492188 63.855469 328.488281 61.582031 326.429688 C 59.308594 324.367188 57.085938 322.253906 54.917969 320.082031 C 52.746094 317.914062 50.632812 315.691406 48.570312 313.417969 C 46.511719 311.144531 44.507812 308.820312 42.558594 306.449219 C 40.613281 304.078125 38.726562 301.660156 36.898438 299.195312 C 35.070312 296.730469 33.304688 294.222656 31.597656 291.667969 C 29.894531 289.117188 28.253906 286.527344 26.675781 283.894531 C 25.097656 281.261719 23.585938 278.59375 22.140625 275.886719 C 20.691406 273.179688 19.3125 270.441406 18.003906 267.667969 C 16.691406 264.890625 15.445312 262.089844 14.273438 259.253906 C 13.097656 256.417969 11.996094 253.554688 10.960938 250.667969 C 9.925781 247.777344 8.964844 244.863281 8.074219 241.929688 C 7.183594 238.992188 6.363281 236.035156 5.621094 233.058594 C 4.875 230.082031 4.203125 227.089844 3.601562 224.078125 C 3.003906 221.070312 2.480469 218.046875 2.03125 215.011719 C 1.578125 211.976562 1.203125 208.933594 0.902344 205.878906 C 0.601562 202.824219 0.375 199.765625 0.226562 196.699219 C 0.0742188 193.636719 0 190.570312 0 187.5 C 0 184.429688 0.0742188 181.363281 0.226562 178.300781 C 0.375 175.234375 0.601562 172.175781 0.902344 169.121094 C 1.203125 166.066406 1.578125 163.023438 2.03125 159.988281 C 2.480469 156.953125 3.003906 153.929688 3.601562 150.921875 C 4.203125 147.910156 4.875 144.917969 5.621094 141.941406 C 6.363281 138.964844 7.183594 136.007812 8.074219 133.070312 C 8.964844 130.136719 9.925781 127.222656 10.960938 124.332031 C 11.996094 121.445312 13.097656 118.582031 14.273438 115.746094 C 15.445312 112.910156 16.691406 110.105469 18.003906 107.332031 C 19.3125 104.558594 20.691406 101.820312 22.140625 99.113281 C 23.585938 96.40625 25.097656 93.738281 26.675781 91.105469 C 28.253906 88.472656 29.894531 85.882812 31.597656 83.332031 C 33.304688 80.777344 35.070312 78.269531 36.898438 75.804688 C 38.726562 73.339844 40.613281 70.921875 42.558594 68.550781 C 44.507812 66.179688 46.511719 63.855469 48.570312 61.582031 C 50.632812 59.308594 52.746094 57.085938 54.917969 54.917969 C 57.085938 52.746094 59.308594 50.632812 61.582031 48.570312 C 63.855469 46.511719 66.179688 44.507812 68.550781 42.558594 C 70.921875 40.613281 73.339844 38.726562 75.804688 36.898438 C 78.269531 35.070312 80.777344 33.304688 83.332031 31.597656 C 85.882812 29.894531 88.472656 28.253906 91.105469 26.675781 C 93.738281 25.097656 96.40625 23.585938 99.113281 22.140625 C 101.820312 20.691406 104.558594 19.3125 107.332031 18.003906 C 110.105469 16.691406 112.910156 15.445312 115.746094 14.273438 C 118.582031 13.097656 121.445312 11.996094 124.332031 10.960938 C 127.222656 9.925781 130.136719 8.964844 133.070312 8.074219 C 136.007812 7.183594 138.964844 6.363281 141.941406 5.617188 C 144.917969 4.875 147.910156 4.203125 150.921875 3.601562 C 153.929688 3.003906 156.953125 2.480469 159.988281 2.03125 C 163.023438 1.578125 166.066406 1.203125 169.121094 0.902344 C 172.175781 0.601562 175.234375 0.375 178.300781 0.226562 C 181.363281 0.0742188 184.429688 0 187.5 0 L 187.5 75 C 185.660156 75 183.820312 75.046875 181.980469 75.136719 C 180.140625 75.226562 178.304688 75.359375 176.472656 75.542969 C 174.640625 75.722656 172.8125 75.949219 170.992188 76.21875 C 169.171875 76.488281 167.359375 76.800781 165.550781 77.160156 C 163.746094 77.519531 161.949219 77.925781 160.164062 78.371094 C 158.378906 78.820312 156.605469 79.308594 154.84375 79.84375 C 153.082031 80.378906 151.332031 80.957031 149.601562 81.578125 C 147.867188 82.195312 146.148438 82.859375 144.449219 83.5625 C 142.746094 84.269531 141.0625 85.015625 139.398438 85.800781 C 137.734375 86.589844 136.089844 87.414062 134.46875 88.285156 C 132.84375 89.152344 131.242188 90.058594 129.664062 91.003906 C 128.085938 91.953125 126.527344 92.9375 125 93.960938 C 123.46875 94.984375 121.960938 96.042969 120.484375 97.140625 C 119.003906 98.234375 117.554688 99.367188 116.128906 100.535156 C 114.707031 101.703125 113.3125 102.90625 111.949219 104.144531 C 110.585938 105.378906 109.253906 106.648438 107.949219 107.949219 C 106.648438 109.253906 105.378906 110.585938 104.144531 111.949219 C 102.90625 113.3125 101.703125 114.707031 100.535156 116.128906 C 99.367188 117.554688 98.234375 119.003906 97.140625 120.484375 C 96.042969 121.960938 94.984375 123.46875 93.960938 125 C 92.9375 126.527344 91.953125 128.085938 91.003906 129.664062 C 90.058594 131.242188 89.152344 132.84375 88.285156 134.46875 C 87.414062 136.089844 86.589844 137.734375 85.800781 139.398438 C 85.015625 141.0625 84.269531 142.746094 83.5625 144.449219 C 82.859375 146.148438 82.195312 147.867188 81.578125 149.601562 C 80.957031 151.332031 80.378906 153.082031 79.84375 154.84375 C 79.308594 156.605469 78.820312 158.378906 78.371094 160.164062 C 77.925781 161.949219 77.519531 163.746094 77.160156 165.550781 C 76.800781 167.359375 76.488281 169.171875 76.21875 170.992188 C 75.949219 172.8125 75.722656 174.640625 75.542969 176.472656 C 75.359375 178.304688 75.226562 180.140625 75.136719 181.980469 C 75.046875 183.820312 75 185.660156 75 187.5 C 75 189.339844 75.046875 191.179688 75.136719 193.019531 C 75.226562 194.859375 75.359375 196.695312 75.542969 198.527344 C 75.722656 200.359375 75.949219 202.1875 76.21875 204.007812 C 76.488281 205.828125 76.800781 207.640625 77.160156 209.449219 C 77.519531 211.253906 77.925781 213.050781 78.371094 214.835938 C 78.820312 216.621094 79.308594 218.394531 79.84375 220.15625 C 80.378906 221.917969 80.957031 223.667969 81.578125 225.398438 C 82.195312 227.132812 82.859375 228.851562 83.5625 230.550781 C 84.269531 232.253906 85.015625 233.933594 85.800781 235.601562 C 86.589844 237.265625 87.414062 238.910156 88.285156 240.53125 C 89.152344 242.15625 90.058594 243.757812 91.003906 245.335938 C 91.953125 246.914062 92.9375 248.472656 93.960938 250 C 94.984375 251.53125 96.042969 253.039062 97.140625 254.515625 C 98.234375 255.996094 99.367188 257.445312 100.535156 258.871094 C 101.703125 260.292969 102.90625 261.6875 104.144531 263.050781 C 105.378906 264.414062 106.648438 265.746094 107.949219 267.050781 C 109.253906 268.351562 110.585938 269.621094 111.949219 270.855469 C 113.3125 272.09375 114.707031 273.296875 116.128906 274.464844 C 117.554688 275.632812 119.003906 276.765625 120.484375 277.859375 C 121.960938 278.957031 123.46875 280.015625 125 281.039062 C 126.527344 282.0625 128.085938 283.046875 129.664062 283.996094 C 131.242188 284.941406 132.84375 285.847656 134.46875 286.714844 C 136.089844 287.585938 137.734375 288.410156 139.398438 289.199219 C 141.0625 289.984375 142.746094 290.730469 144.449219 291.4375 C 146.148438 292.140625 147.867188 292.804688 149.601562 293.421875 C 151.332031 294.042969 153.082031 294.621094 154.84375 295.15625 C 156.605469 295.691406 158.378906 296.179688 160.164062 296.628906 C 161.949219 297.074219 163.746094 297.480469 165.550781 297.839844 C 167.359375 298.199219 169.171875 298.511719 170.992188 298.78125 C 172.8125 299.050781 174.640625 299.277344 176.472656 299.457031 C 178.304688 299.640625 180.140625 299.773438 181.980469 299.863281 C 183.820312 299.953125 185.660156 300 187.5 300 C 189.339844 300 191.179688 299.953125 193.019531 299.863281 C 194.859375 299.773438 196.695312 299.640625 198.527344 299.457031 C 200.359375 299.277344 202.1875 299.050781 204.007812 298.78125 C 205.828125 298.511719 207.640625 298.199219 209.449219 297.839844 C 211.253906 297.480469 213.050781 297.074219 214.835938 296.628906 C 216.621094 296.179688 218.394531 295.691406 220.15625 295.15625 C 221.917969 294.621094 223.667969 294.042969 225.398438 293.421875 C 227.132812 292.804688 228.851562 292.140625 230.550781 291.4375 C 232.253906 290.730469 233.933594 289.984375 235.601562 289.199219 C 237.265625 288.410156 238.910156 287.585938 240.53125 286.714844 C 242.15625 285.847656 243.757812 284.941406 245.335938 283.996094 C 246.914062 283.046875 248.472656 282.0625 250 281.039062 C 251.53125 280.015625 253.039062 278.957031 254.515625 277.859375 C 255.996094 276.765625 257.445312 275.632812 258.871094 274.464844 C 260.292969 273.296875 261.6875 272.09375 263.050781 270.855469 C 264.414062 269.621094 265.746094 268.351562 267.050781 267.050781 C 268.351562 265.746094 269.621094 264.414062 270.855469 263.050781 C 272.09375 261.6875 273.296875 260.292969 274.464844 258.871094 C 275.632812 257.445312 276.765625 255.996094 277.859375 254.515625 C 278.957031 253.039062 280.015625 251.53125 281.039062 250 C 282.0625 248.472656 283.046875 246.914062 283.996094 245.335938 C 284.941406 243.757812 285.847656 242.15625 286.714844 240.53125 C 287.585938 238.910156 288.410156 237.265625 289.199219 235.601562 C 289.984375 233.933594 290.730469 232.253906 291.4375 230.550781 C 292.140625 228.851562 292.804688 227.132812 293.421875 225.398438 C 294.042969 223.667969 294.621094 221.917969 295.15625 220.15625 C 295.691406 218.394531 296.179688 216.621094 296.628906 214.835938 C 297.074219 213.050781 297.480469 211.253906 297.839844 209.449219 C 298.199219 207.640625 298.511719 205.828125 298.78125 204.007812 C 299.050781 202.1875 299.277344 200.359375 299.457031 198.527344 C 299.640625 196.695312 299.773438 194.859375 299.863281 193.019531 C 299.953125 191.179688 300 189.339844 300 187.5 C 300 185.660156 299.953125 183.820312 299.863281 181.980469 C 299.773438 180.140625 299.640625 178.304688 299.457031 176.472656 C 299.277344 174.640625 299.050781 172.8125 298.78125 170.992188 C 298.511719 169.171875 298.199219 167.359375 297.839844 165.550781 C 297.480469 163.746094 297.074219 161.949219 296.628906 160.164062 C 296.179688 158.378906 295.691406 156.605469 295.15625 154.84375 C 294.621094 153.082031 294.042969 151.332031 293.421875 149.601562 C 292.804688 147.867188 292.140625 146.148438 291.4375 144.449219 C 290.730469 142.746094 289.984375 141.0625 289.199219 139.398438 C 288.410156 137.734375 287.585938 136.089844 286.714844 134.46875 C 285.847656 132.84375 284.941406 131.242188 283.996094 129.664062 C 283.046875 128.085938 282.0625 126.527344 281.039062 125 C 280.015625 123.46875 278.957031 121.960938 277.859375 120.484375 C 276.765625 119.003906 275.632812 117.554688 274.464844 116.128906 C 273.296875 114.707031 272.09375 113.3125 270.855469 111.949219 C 269.621094 110.585938 268.351562 109.253906 267.050781 107.949219 C 265.746094 106.648438 264.414062 105.378906 263.050781 104.144531 C 261.6875 102.90625 260.292969 101.703125 258.871094 100.535156 C 257.445312 99.367188 255.996094 98.234375 254.515625 97.140625 C 253.039062 96.042969 251.53125 94.984375 250 93.960938 C 248.472656 92.9375 246.914062 91.953125 245.335938 91.003906 C 243.757812 90.058594 242.15625 89.152344 240.53125 88.285156 C 238.910156 87.414062 237.265625 86.589844 235.601562 85.800781 C 233.933594 85.015625 232.253906 84.269531 230.550781 83.5625 C 228.851562 82.859375 227.132812 82.195312 225.398438 81.578125 C 223.667969 80.957031 221.917969 80.378906 220.15625 79.84375 C 218.394531 79.308594 216.621094 78.820312 214.835938 78.371094 C 213.050781 77.925781 211.253906 77.519531 209.449219 77.160156 C 207.640625 76.800781 205.828125 76.488281 204.007812 76.21875 C 202.1875 75.949219 200.359375 75.722656 198.527344 75.542969 C 196.695312 75.359375 194.859375 75.226562 193.019531 75.136719 C 191.179688 75.046875 189.339844 75 187.5 75 Z M 187.5 0 " fill-opacity="1" fill-rule="nonzero"/><path fill="#6ce5e8" d="M 234.375 5.953125 C 236.867188 6.597656 239.347656 7.292969 241.8125 8.039062 C 244.277344 8.785156 246.722656 9.582031 249.15625 10.425781 C 251.585938 11.273438 254 12.171875 256.394531 13.117188 C 258.789062 14.0625 261.164062 15.058594 263.515625 16.101562 C 265.871094 17.144531 268.203125 18.238281 270.511719 19.375 C 272.820312 20.515625 275.105469 21.703125 277.363281 22.9375 C 279.625 24.171875 281.855469 25.453125 284.0625 26.777344 C 286.269531 28.105469 288.449219 29.476562 290.601562 30.890625 C 292.75 32.304688 294.871094 33.765625 296.960938 35.269531 C 299.054688 36.773438 301.113281 38.316406 303.136719 39.90625 C 305.164062 41.492188 307.160156 43.121094 309.117188 44.792969 C 311.078125 46.464844 313.003906 48.171875 314.890625 49.921875 C 316.78125 51.671875 318.632812 53.460938 320.449219 55.285156 C 322.265625 57.109375 324.042969 58.972656 325.78125 60.871094 C 327.519531 62.769531 329.21875 64.703125 330.878906 66.671875 C 332.535156 68.640625 334.15625 70.644531 335.730469 72.679688 C 337.308594 74.714844 338.84375 76.78125 340.335938 78.882812 C 341.824219 80.980469 343.273438 83.109375 344.675781 85.265625 C 346.082031 87.425781 347.441406 89.613281 348.753906 91.828125 C 350.066406 94.042969 351.335938 96.28125 352.558594 98.546875 C 353.777344 100.816406 354.953125 103.105469 356.078125 105.421875 C 357.207031 107.734375 358.285156 110.074219 359.316406 112.433594 C 360.347656 114.792969 361.328125 117.171875 362.261719 119.570312 C 363.195312 121.972656 364.078125 124.390625 364.910156 126.824219 C 365.746094 129.261719 366.527344 131.714844 367.257812 134.183594 C 367.992188 136.652344 368.671875 139.132812 369.300781 141.628906 C 369.933594 144.125 370.511719 146.636719 371.039062 149.15625 C 371.5625 151.675781 372.039062 154.207031 372.460938 156.746094 C 372.882812 159.285156 373.253906 161.832031 373.570312 164.390625 C 373.886719 166.945312 374.152344 169.503906 374.363281 172.070312 C 374.574219 174.636719 374.734375 177.207031 374.839844 179.777344 C 374.945312 182.351562 375 184.925781 375 187.5 C 375 190.074219 374.945312 192.648438 374.839844 195.222656 C 374.734375 197.792969 374.574219 200.363281 374.363281 202.929688 C 374.152344 205.496094 373.886719 208.054688 373.570312 210.609375 C 373.253906 213.167969 372.882812 215.714844 372.460938 218.253906 C 372.039062 220.792969 371.5625 223.324219 371.039062 225.84375 C 370.511719 228.363281 369.933594 230.875 369.300781 233.371094 C 368.671875 235.867188 367.992188 238.347656 367.257812 240.816406 C 366.527344 243.285156 365.746094 245.738281 364.910156 248.175781 C 364.078125 250.609375 363.195312 253.027344 362.261719 255.429688 C 361.328125 257.828125 360.347656 260.207031 359.316406 262.566406 C 358.285156 264.925781 357.207031 267.265625 356.078125 269.578125 C 354.953125 271.894531 353.777344 274.183594 352.558594 276.453125 C 351.335938 278.71875 350.066406 280.957031 348.753906 283.171875 C 347.441406 285.386719 346.082031 287.574219 344.675781 289.734375 C 343.273438 291.890625 341.824219 294.019531 340.335938 296.117188 C 338.84375 298.21875 337.308594 300.285156 335.730469 302.320312 C 334.15625 304.355469 332.535156 306.359375 330.878906 308.328125 C 329.21875 310.296875 327.519531 312.230469 325.78125 314.128906 C 324.042969 316.027344 322.265625 317.890625 320.449219 319.714844 C 318.632812 321.539062 316.78125 323.328125 314.890625 325.078125 C 313.003906 326.828125 311.078125 328.535156 309.117188 330.207031 C 307.160156 331.878906 305.164062 333.507812 303.136719 335.09375 C 301.113281 336.683594 299.054688 338.226562 296.960938 339.730469 C 294.871094 341.234375 292.75 342.695312 290.601562 344.109375 C 288.449219 345.523438 286.269531 346.894531 284.0625 348.222656 C 281.855469 349.546875 279.625 350.828125 277.363281 352.0625 C 275.105469 353.296875 272.820312 354.484375 270.511719 355.625 C 268.203125 356.761719 265.871094 357.855469 263.515625 358.898438 C 261.164062 359.941406 258.789062 360.9375 256.394531 361.882812 C 254 362.828125 251.585938 363.726562 249.15625 364.574219 C 246.722656 365.417969 244.277344 366.214844 241.8125 366.960938 C 239.347656 367.707031 236.867188 368.402344 234.375 369.046875 C 233.1875 369.355469 231.984375 369.601562 230.769531 369.792969 C 229.554688 369.980469 228.335938 370.109375 227.109375 370.179688 C 225.882812 370.25 224.65625 370.261719 223.429688 370.210938 C 222.199219 370.160156 220.980469 370.046875 219.761719 369.875 C 218.546875 369.707031 217.339844 369.476562 216.144531 369.1875 C 214.953125 368.894531 213.777344 368.550781 212.617188 368.144531 C 211.457031 367.738281 210.320312 367.277344 209.203125 366.761719 C 208.089844 366.242188 207.003906 365.671875 205.945312 365.050781 C 204.886719 364.425781 203.859375 363.75 202.867188 363.027344 C 201.875 362.304688 200.921875 361.53125 200.003906 360.714844 C 199.089844 359.894531 198.214844 359.035156 197.382812 358.128906 C 196.550781 357.226562 195.765625 356.28125 195.027344 355.300781 C 194.289062 354.320312 193.597656 353.304688 192.960938 352.253906 C 192.320312 351.207031 191.734375 350.128906 191.199219 349.023438 C 190.667969 347.914062 190.191406 346.785156 189.765625 345.632812 C 189.34375 344.476562 188.980469 343.304688 188.671875 342.117188 C 188.367188 340.925781 188.117188 339.726562 187.929688 338.511719 C 187.738281 337.296875 187.609375 336.078125 187.542969 334.851562 C 187.472656 333.625 187.464844 332.398438 187.515625 331.167969 C 187.566406 329.941406 187.679688 328.71875 187.851562 327.503906 C 188.019531 326.285156 188.253906 325.082031 188.542969 323.886719 C 188.832031 322.695312 189.179688 321.515625 189.585938 320.359375 C 189.992188 319.199219 190.453125 318.0625 190.972656 316.945312 C 191.488281 315.832031 192.058594 314.746094 192.683594 313.6875 C 193.308594 312.628906 193.980469 311.605469 194.707031 310.613281 C 195.433594 309.621094 196.203125 308.667969 197.023438 307.75 C 197.839844 306.835938 198.703125 305.960938 199.609375 305.128906 C 200.511719 304.300781 201.457031 303.515625 202.4375 302.777344 C 203.417969 302.035156 204.433594 301.347656 205.484375 300.710938 C 206.53125 300.070312 207.609375 299.484375 208.71875 298.953125 C 209.824219 298.417969 210.957031 297.941406 212.109375 297.519531 C 213.261719 297.097656 214.433594 296.734375 215.625 296.425781 C 218.617188 295.65625 221.574219 294.761719 224.492188 293.742188 C 227.414062 292.726562 230.285156 291.59375 233.109375 290.339844 C 235.9375 289.085938 238.707031 287.71875 241.417969 286.238281 C 244.132812 284.757812 246.777344 283.164062 249.359375 281.464844 C 251.941406 279.765625 254.449219 277.960938 256.882812 276.054688 C 259.316406 274.148438 261.667969 272.148438 263.933594 270.046875 C 266.203125 267.945312 268.378906 265.757812 270.46875 263.476562 C 272.554688 261.199219 274.546875 258.835938 276.4375 256.390625 C 278.332031 253.949219 280.121094 251.429688 281.804688 248.839844 C 283.492188 246.25 285.066406 243.59375 286.535156 240.871094 C 288 238.148438 289.351562 235.375 290.589844 232.539062 C 291.828125 229.707031 292.945312 226.828125 293.945312 223.90625 C 294.945312 220.980469 295.824219 218.019531 296.582031 215.023438 C 297.335938 212.023438 297.96875 209 298.476562 205.953125 C 298.984375 202.902344 299.363281 199.839844 299.617188 196.757812 C 299.871094 193.675781 300 190.589844 300 187.5 C 300 184.410156 299.871094 181.324219 299.617188 178.242188 C 299.363281 175.160156 298.984375 172.097656 298.476562 169.046875 C 297.96875 166 297.335938 162.976562 296.582031 159.976562 C 295.824219 156.980469 294.945312 154.019531 293.945312 151.09375 C 292.945312 148.171875 291.828125 145.292969 290.589844 142.460938 C 289.351562 139.625 288 136.851562 286.535156 134.128906 C 285.066406 131.40625 283.492188 128.75 281.804688 126.160156 C 280.121094 123.570312 278.332031 121.050781 276.4375 118.609375 C 274.546875 116.164062 272.554688 113.800781 270.46875 111.523438 C 268.378906 109.242188 266.203125 107.054688 263.933594 104.953125 C 261.667969 102.851562 259.316406 100.851562 256.882812 98.945312 C 254.449219 97.035156 251.941406 95.234375 249.359375 93.535156 C 246.777344 91.835938 244.132812 90.242188 241.417969 88.761719 C 238.707031 87.28125 235.9375 85.914062 233.109375 84.660156 C 230.285156 83.40625 227.414062 82.273438 224.492188 81.257812 C 221.574219 80.238281 218.617188 79.34375 215.625 78.574219 C 214.4375 78.265625 213.265625 77.902344 212.109375 77.480469 C 210.957031 77.054688 209.828125 76.578125 208.722656 76.046875 C 207.613281 75.511719 206.539062 74.925781 205.488281 74.289062 C 204.441406 73.648438 203.425781 72.960938 202.445312 72.222656 C 201.460938 71.480469 200.519531 70.695312 199.617188 69.867188 C 198.710938 69.035156 197.851562 68.160156 197.03125 67.246094 C 196.214844 66.328125 195.441406 65.375 194.71875 64.382812 C 193.996094 63.390625 193.320312 62.367188 192.695312 61.308594 C 192.074219 60.25 191.503906 59.164062 190.984375 58.050781 C 190.46875 56.9375 190.007812 55.800781 189.601562 54.640625 C 189.195312 53.480469 188.847656 52.304688 188.558594 51.109375 C 188.269531 49.917969 188.039062 48.710938 187.867188 47.496094 C 187.695312 46.28125 187.585938 45.058594 187.53125 43.832031 C 187.480469 42.605469 187.492188 41.378906 187.558594 40.152344 C 187.628906 38.925781 187.757812 37.707031 187.945312 36.492188 C 188.136719 35.277344 188.382812 34.078125 188.691406 32.886719 C 188.996094 31.699219 189.363281 30.527344 189.785156 29.375 C 190.207031 28.222656 190.683594 27.089844 191.21875 25.984375 C 191.75 24.878906 192.335938 23.800781 192.976562 22.75 C 193.613281 21.703125 194.304688 20.6875 195.042969 19.707031 C 195.78125 18.726562 196.566406 17.78125 197.398438 16.878906 C 198.230469 15.976562 199.101562 15.113281 200.019531 14.296875 C 200.933594 13.476562 201.886719 12.707031 202.878906 11.980469 C 203.871094 11.257812 204.898438 10.582031 205.953125 9.960938 C 207.011719 9.335938 208.097656 8.765625 209.210938 8.25 C 210.328125 7.730469 211.464844 7.269531 212.621094 6.863281 C 213.78125 6.460938 214.957031 6.113281 216.152344 5.820312 C 217.34375 5.53125 218.550781 5.300781 219.765625 5.128906 C 220.984375 4.957031 222.203125 4.847656 223.429688 4.796875 C 224.660156 4.746094 225.886719 4.753906 227.109375 4.824219 C 228.335938 4.890625 229.558594 5.019531 230.769531 5.210938 C 231.984375 5.398438 233.1875 5.648438 234.375 5.953125 Z M 234.375 5.953125 " fill-opacity="1" fill-rule="nonzero"/></svg>